<?xml version="1.0" encoding="UTF-8"?>
<svg id="Layer_1" data-name="Layer 1" xmlns="http://www.w3.org/2000/svg" viewBox="0 0 128 128">
  <defs>
    <style>
      .cls-1 {
        fill: #292f33;
      }

      .cls-2 {
        fill: #55acee;
      }

      .cls-3 {
        fill: #dd2e44;
      }

      .cls-4 {
        fill: #ea596e;
      }

      .cls-5 {
        fill: #99aab5;
      }
    </style>
  </defs>
  <ellipse class="cls-1" cx="16" cy="111.57" rx="16" ry="16.43"/>
  <ellipse class="cls-3" cx="16" cy="111.57" rx="10.67" ry="10.95"/>
  <ellipse class="cls-1" cx="112" cy="111.57" rx="16" ry="16.43"/>
  <ellipse class="cls-3" cx="112" cy="111.57" rx="10.67" ry="10.95"/>
  <path class="cls-2" d="m112,117.05H40.89c-2.93,0-5.33-2.46-5.33-5.48s2.4-5.48,5.33-5.48h71.11c2.93,0,5.33,2.46,5.33,5.48s-2.4,5.48-5.33,5.48Z"/>
  <path class="cls-2" d="m92.49,112.47c-.01-.3-.04-.6-.04-.9,0-11.09,8.76-20.08,19.56-20.08,4.3,0,8.27,1.45,11.5,3.86l3.16-4.4c-4.25-3.21-9.39-4.94-14.67-4.94-13.75,0-24.89,11.44-24.89,25.56,0,.37.04.73.05,1.1l5.33-.2Zm-72.47-20.55c9.05,1.95,15.53,10.14,15.54,19.63h12.44c0-15.83-10.93-29.06-25.47-32.15-.82,4.13-1.69,8.43-2.52,12.52Z"/>
  <path class="cls-5" d="m15.63,113.39c-.96-.21-1.57-1.18-1.37-2.17L35.6,8.13c.21-.98,1.15-1.61,2.11-1.41.96.21,1.57,1.18,1.37,2.17l-21.34,103.1c-.21.98-1.15,1.61-2.11,1.41Z"/>
  <path class="cls-2" d="m21.77,92.44l-3.48-.76c-1.92-.42-3.14-2.36-2.74-4.33l4.43-21.43c.41-1.97,2.3-3.23,4.22-2.81l3.48.76c1.91.42,3.15,2.37,2.74,4.33l-4.43,21.42c-.42,1.97-2.3,3.23-4.22,2.81Z"/>
  <path class="cls-3" d="m33.07,12.35l-6.96-1.52c-2.88-.64-4.71-3.54-4.11-6.5.62-2.95,3.45-4.84,6.33-4.22l6.95,1.52c2.88.64,4.71,3.54,4.11,6.5-.62,2.95-3.44,4.84-6.32,4.22Z"/>
  <path class="cls-2" d="m38.54,2.68c-2.88-.62-5.71,1.26-6.33,4.22l-4.8,23.21c-.4,1.97.82,3.91,2.74,4.33l3.48.76c1.92.41,3.8-.84,4.22-2.81l4.8-23.21c.6-2.96-1.23-5.86-4.11-6.5Z"/>
  <path class="cls-3" d="m50.15,16.08l-10.43-2.28c-2.88-.64-4.71-3.54-4.11-6.5.62-2.95,3.45-4.84,6.33-4.22l10.43,2.28c2.88.64,4.71,3.54,4.11,6.5-.62,2.95-3.45,4.84-6.33,4.22Z"/>
  <path class="cls-4" d="m56.54,11.88c-.52,2.98-3.29,4.96-6.19,4.43-2.9-.53-4.83-3.38-4.31-6.36.02-.12.04-.23.07-.35.7-2.94,3.59-4.73,6.45-4.01,2.73.69,4.47,3.44,3.97,6.28Z"/>
  <ellipse class="cls-2" cx="125.12" cy="93.17" rx="2.63" ry="2.7"/>
</svg>