<?xml version="1.0" encoding="UTF-8"?>
<svg id="Layer_1" data-name="Layer 1" xmlns="http://www.w3.org/2000/svg" viewBox="0 0 48 48">
  <defs>
    <style>
      .cls-1 {
        fill: #fff;
      }

      .cls-2 {
        fill: #bf3f3f;
        stroke: #6e2c2c;
        stroke-miterlimit: 10;
      }
    </style>
  </defs>
  <circle class="cls-2" cx="24" cy="24" r="23.5"/>
  <path class="cls-1" d="m17.72,33.77h10.8v-1.5c0-3.32,2.69-6.01,6.01-6.01h1.11l-2.86-12.69c-.31-1.37-1.53-2.34-2.93-2.35h-5.85v3.01h5.85l2.11,9.4h-.02c-3.29.99-5.73,3.76-6.3,7.14h-7.92c-.75-2.12-2.94-3.36-5.14-2.92-1.77.35-3.2,1.8-3.53,3.58-.46,2.45,1.15,4.81,3.6,5.27.28.05.56.08.84.08,1.95,0,3.61-1.26,4.24-3.01m-4.24,0c-.83,0-1.5-.68-1.5-1.5s.68-1.5,1.5-1.5,1.5.68,1.5,1.5-.68,1.5-1.5,1.5m21.05-6.01c-2.5,0-4.51,2.01-4.51,4.51s2.01,4.51,4.51,4.51,4.51-2.01,4.51-4.51-2.01-4.51-4.51-4.51m0,6.01c-.83,0-1.5-.68-1.5-1.5s.68-1.5,1.5-1.5,1.5.68,1.5,1.5-.68,1.5-1.5,1.5Z"/>
</svg>